M48
; DRILL file KiCad 10.0.5 date 2026-08-20T23:03:35
; FORMAT={-:-/ absolute / metric / decimal}
; #@! TF.CreationDate,2026-08-20T23:03:35+05:30
; #@! TF.GenerationSoftware,Kicad,Pcbnew,10.0.5
; #@! TF.FileFunction,MixedPlating,1,2
FMAT,2
METRIC
; #@! TA.AperFunction,Plated,PTH,ViaDrill
T1C0.300
; #@! TA.AperFunction,Plated,PTH,ComponentDrill
T2C0.800
; #@! TA.AperFunction,Plated,PTH,ComponentDrill
T3C1.000
; #@! TA.AperFunction,Plated,PTH,ComponentDrill
T4C1.500
; #@! TA.AperFunction,NonPlated,NPTH,ComponentDrill
T5C1.700
; #@! TA.AperFunction,NonPlated,NPTH,ComponentDrill
T6C2.200
; #@! TA.AperFunction,NonPlated,NPTH,ComponentDrill
T7C4.000
%
G90
G05
T1
X20.5Y-68.5
X27.5Y-18.0
X45.0Y-29.5
X46.0Y-32.5
T2
X20.69Y-56.0
X20.69Y-113.5
X21.19Y-75.5
X21.19Y-95.0
X28.31Y-56.0
X28.31Y-113.5
X28.81Y-75.5
X28.81Y-95.0
X40.69Y-75.5
X40.69Y-113.5
X40.88Y-95.0
X41.19Y-56.0
X48.31Y-75.5
X48.31Y-113.5
X48.5Y-95.0
X48.81Y-56.0
X60.19Y-56.0
X60.19Y-75.5
X60.19Y-95.0
X60.38Y-113.5
X67.81Y-56.0
X67.81Y-75.5
X67.81Y-95.0
X68.0Y-113.5
X79.19Y-56.0
X79.69Y-76.0
X79.69Y-95.0
X79.69Y-113.5
X86.81Y-56.0
X87.31Y-76.0
X87.31Y-95.0
X87.31Y-113.5
T3
X19.375Y-18.38
X19.375Y-20.92
X19.375Y-23.46
X19.375Y-26.0
X19.375Y-28.54
X19.375Y-31.08
X19.375Y-33.62
X34.625Y-18.38
X34.625Y-20.92
X34.625Y-23.46
X34.625Y-26.0
X34.625Y-28.54
X34.625Y-31.08
X34.625Y-33.62
X76.75Y-21.5
X76.75Y-24.0
X76.75Y-26.5
X91.25Y-21.5
X91.25Y-26.5
T4
X21.171Y-43.563
X21.181Y-63.04
X21.19Y-82.46
X21.19Y-101.96
X27.521Y-41.023
X27.531Y-60.5
X27.54Y-79.92
X27.54Y-99.42
X40.661Y-63.052
X40.671Y-43.518
X40.69Y-82.46
X40.692Y-101.959
X47.011Y-60.512
X47.021Y-40.978
X47.04Y-79.92
X47.042Y-99.419
X60.161Y-63.052
X60.171Y-43.518
X60.19Y-82.46
X60.192Y-101.959
X66.511Y-60.512
X66.521Y-40.978
X66.54Y-79.92
X66.542Y-99.419
X79.654Y-63.031
X79.671Y-43.518
X79.69Y-82.46
X79.692Y-101.959
X86.004Y-60.491
X86.021Y-40.978
X86.04Y-79.92
X86.042Y-99.419
T5
X19.901Y-46.103
X19.911Y-65.58
X19.92Y-85.0
X19.92Y-104.5
X30.061Y-46.103
X30.071Y-65.58
X30.08Y-85.0
X30.08Y-104.5
X39.391Y-65.592
X39.401Y-46.058
X39.42Y-85.0
X39.422Y-104.499
X49.551Y-65.592
X49.561Y-46.058
X49.58Y-85.0
X49.582Y-104.499
X58.891Y-65.592
X58.901Y-46.058
X58.92Y-85.0
X58.922Y-104.499
X69.051Y-65.592
X69.061Y-46.058
X69.08Y-85.0
X69.082Y-104.499
X78.384Y-65.571
X78.401Y-46.058
X78.42Y-85.0
X78.422Y-104.499
X88.544Y-65.571
X88.561Y-46.058
X88.58Y-85.0
X88.582Y-104.499
T6
X67.0Y-24.5
T7
X24.981Y-46.103
X24.991Y-65.58
X25.0Y-85.0
X25.0Y-104.5
X44.471Y-65.592
X44.481Y-46.058
X44.5Y-85.0
X44.502Y-104.499
X63.971Y-65.592
X63.981Y-46.058
X64.0Y-85.0
X64.002Y-104.499
X83.464Y-65.571
X83.481Y-46.058
X83.5Y-85.0
X83.502Y-104.499
T4
G00X83.6Y-18.4
M15
G01X84.9Y-18.4
M16
G05
G00X83.6Y-29.6
M15
G01X84.9Y-29.6
M16
G05
M30
