%TF.GenerationSoftware,KiCad,Pcbnew,10.0.5*%
%TF.CreationDate,2026-08-20T23:03:31+05:30*%
%TF.ProjectId,freaky 2,66726561-6b79-4203-922e-6b696361645f,rev?*%
%TF.SameCoordinates,Original*%
%TF.FileFunction,Copper,L1,Top*%
%TF.FilePolarity,Positive*%
%FSLAX46Y46*%
G04 Gerber Fmt 4.6, Leading zero omitted, Abs format (unit mm)*
G04 Created by KiCad (PCBNEW 10.0.5) date 2026-08-20 23:03:31*
%MOMM*%
%LPD*%
G01*
G04 APERTURE LIST*
G04 Aperture macros list*
%AMRoundRect*
0 Rectangle with rounded corners*
0 $1 Rounding radius*
0 $2 $3 $4 $5 $6 $7 $8 $9 X,Y pos of 4 corners*
0 Add a 4 corners polygon primitive as box body*
4,1,4,$2,$3,$4,$5,$6,$7,$8,$9,$2,$3,0*
0 Add four circle primitives for the rounded corners*
1,1,$1+$1,$2,$3*
1,1,$1+$1,$4,$5*
1,1,$1+$1,$6,$7*
1,1,$1+$1,$8,$9*
0 Add four rect primitives between the rounded corners*
20,1,$1+$1,$2,$3,$4,$5,0*
20,1,$1+$1,$4,$5,$6,$7,0*
20,1,$1+$1,$6,$7,$8,$9,0*
20,1,$1+$1,$8,$9,$2,$3,0*%
G04 Aperture macros list end*
%TA.AperFunction,ComponentPad*%
%ADD10C,2.200000*%
%TD*%
%TA.AperFunction,ComponentPad*%
%ADD11R,2.000000X2.000000*%
%TD*%
%TA.AperFunction,ComponentPad*%
%ADD12C,2.000000*%
%TD*%
%TA.AperFunction,ComponentPad*%
%ADD13R,3.200000X2.000000*%
%TD*%
%TA.AperFunction,ComponentPad*%
%ADD14RoundRect,0.250000X0.550000X0.550000X-0.550000X0.550000X-0.550000X-0.550000X0.550000X-0.550000X0*%
%TD*%
%TA.AperFunction,ComponentPad*%
%ADD15C,1.600000*%
%TD*%
%TA.AperFunction,ComponentPad*%
%ADD16R,3.500000X1.700000*%
%TD*%
%TA.AperFunction,ComponentPad*%
%ADD17O,3.600000X1.700000*%
%TD*%
%TA.AperFunction,ComponentPad*%
%ADD18O,3.700000X1.700000*%
%TD*%
%TA.AperFunction,ViaPad*%
%ADD19C,0.600000*%
%TD*%
%TA.AperFunction,Conductor*%
%ADD20C,0.200000*%
%TD*%
G04 APERTURE END LIST*
D10*
%TO.P,SW10,1,1_1*%
%TO.N,Net-(U3-PA4_A1_D1)*%
X47040000Y-79920000D03*
%TO.P,SW10,2,2_2*%
%TO.N,Net-(D10-A)*%
X40690000Y-82460000D03*
%TD*%
%TO.P,SW4,1,1_1*%
%TO.N,Net-(U3-PA11_A3_D3)*%
X86020519Y-40977873D03*
%TO.P,SW4,2,2_2*%
%TO.N,Net-(D3-A)*%
X79670519Y-43517873D03*
%TD*%
%TO.P,SW5,1,1_1*%
%TO.N,Net-(U3-PA02_A0_D0)*%
X27530828Y-60500283D03*
%TO.P,SW5,2,2_2*%
%TO.N,Net-(D5-A)*%
X21180828Y-63040283D03*
%TD*%
%TO.P,SW7,1,1_1*%
%TO.N,Net-(U3-PA10_A2_D2)*%
X66510842Y-60512135D03*
%TO.P,SW7,2,2_2*%
%TO.N,Net-(D7-A)*%
X60160842Y-63052135D03*
%TD*%
%TO.P,SW3,1,1_1*%
%TO.N,Net-(U3-PA10_A2_D2)*%
X66520519Y-40977873D03*
%TO.P,SW3,2,2_2*%
%TO.N,Net-(D2-A)*%
X60170519Y-43517873D03*
%TD*%
%TO.P,SW1,1,1_1*%
%TO.N,Net-(U3-PA02_A0_D0)*%
X27520519Y-41022873D03*
%TO.P,SW1,2,2_2*%
%TO.N,Net-(D4-A)*%
X21170519Y-43562873D03*
%TD*%
D11*
%TO.P,SW17,A,A_A*%
%TO.N,Net-(U3-PA6_A10_D10_MOSI)*%
X76750000Y-21500000D03*
D12*
%TO.P,SW17,B,B_B*%
%TO.N,Net-(U3-PA9_A5_D5_SCL)*%
X76750000Y-26500000D03*
%TO.P,SW17,C,C_C*%
%TO.N,Net-(U3-GND)*%
X76750000Y-24000000D03*
D13*
%TO.P,SW17,MP*%
%TO.N,N/C*%
X84250000Y-18400000D03*
X84250000Y-29600000D03*
D12*
%TO.P,SW17,S1,S1_S1*%
%TO.N,Net-(U3-PA8_A4_D4_SDA)*%
X91250000Y-26500000D03*
%TO.P,SW17,S2,S2_S2*%
%TO.N,Net-(U3-GND)*%
X91250000Y-21500000D03*
%TD*%
D10*
%TO.P,SW11,1,1_1*%
%TO.N,Net-(U3-PA10_A2_D2)*%
X66540000Y-79920000D03*
%TO.P,SW11,2,2_2*%
%TO.N,Net-(D11-A)*%
X60190000Y-82460000D03*
%TD*%
%TO.P,SW2,1,1_1*%
%TO.N,Net-(U3-PA4_A1_D1)*%
X47020519Y-40977873D03*
%TO.P,SW2,2,2_2*%
%TO.N,Net-(D1-A)*%
X40670519Y-43517873D03*
%TD*%
%TO.P,SW8,1,1_1*%
%TO.N,Net-(U3-PA11_A3_D3)*%
X86004067Y-60491112D03*
%TO.P,SW8,2,2_2*%
%TO.N,Net-(D8-A)*%
X79654067Y-63031112D03*
%TD*%
%TO.P,SW9,1,1_1*%
%TO.N,Net-(U3-PA02_A0_D0)*%
X27540000Y-79920000D03*
%TO.P,SW9,2,2_2*%
%TO.N,Net-(D9-A)*%
X21190000Y-82460000D03*
%TD*%
%TO.P,SW13,1,1_1*%
%TO.N,Net-(U3-PA02_A0_D0)*%
X27540000Y-99420000D03*
%TO.P,SW13,2,2_2*%
%TO.N,Net-(D13-A)*%
X21190000Y-101960000D03*
%TD*%
%TO.P,SW6,1,1_1*%
%TO.N,Net-(U3-PA4_A1_D1)*%
X47010842Y-60512135D03*
%TO.P,SW6,2,2_2*%
%TO.N,Net-(D6-A)*%
X40660842Y-63052135D03*
%TD*%
%TO.P,SW12,1,1_1*%
%TO.N,Net-(U3-PA11_A3_D3)*%
X86040000Y-79920000D03*
%TO.P,SW12,2,2_2*%
%TO.N,Net-(D12-A)*%
X79690000Y-82460000D03*
%TD*%
%TO.P,SW16,1,1_1*%
%TO.N,Net-(U3-PA11_A3_D3)*%
X86041609Y-99418707D03*
%TO.P,SW16,2,2_2*%
%TO.N,Net-(D16-A)*%
X79691609Y-101958707D03*
%TD*%
%TO.P,SW14,1,1_1*%
%TO.N,Net-(U3-PA4_A1_D1)*%
X47041609Y-99418707D03*
%TO.P,SW14,2,2_2*%
%TO.N,Net-(D14-A)*%
X40691609Y-101958707D03*
%TD*%
%TO.P,SW15,1,1_1*%
%TO.N,Net-(U3-PA10_A2_D2)*%
X66541609Y-99418707D03*
%TO.P,SW15,2,2_2*%
%TO.N,Net-(D15-A)*%
X60191609Y-101958707D03*
%TD*%
D14*
%TO.P,D14,1,K_1*%
%TO.N,Net-(D13-K)*%
X48310000Y-113500000D03*
D15*
%TO.P,D14,2,A_2*%
%TO.N,Net-(D14-A)*%
X40690000Y-113500000D03*
%TD*%
D16*
%TO.P,U3,1,PA02_A0_D0_1*%
%TO.N,Net-(U3-PA02_A0_D0)*%
X35625000Y-18380000D03*
D17*
%TO.P,U3,2,PA4_A1_D1_2*%
%TO.N,Net-(U3-PA4_A1_D1)*%
X35625000Y-20920000D03*
%TO.P,U3,3,PA10_A2_D2_3*%
%TO.N,Net-(U3-PA10_A2_D2)*%
X35625000Y-23460000D03*
%TO.P,U3,4,PA11_A3_D3_4*%
%TO.N,Net-(U3-PA11_A3_D3)*%
X35625000Y-26000000D03*
%TO.P,U3,5,PA8_A4_D4_SDA_5*%
%TO.N,Net-(U3-PA8_A4_D4_SDA)*%
X35625000Y-28540000D03*
%TO.P,U3,6,PA9_A5_D5_SCL_6*%
%TO.N,Net-(U3-PA9_A5_D5_SCL)*%
X35625000Y-31080000D03*
%TO.P,U3,7,PB08_A6_D6_TX_7*%
%TO.N,Net-(D1-K)*%
X35625000Y-33620000D03*
%TO.P,U3,8,PB09_A7_D7_RX_8*%
%TO.N,Net-(D5-K)*%
X18375000Y-33620000D03*
%TO.P,U3,9,PA7_A8_D8_SCK_9*%
%TO.N,Net-(D10-K)*%
X18375000Y-31080000D03*
%TO.P,U3,10,PA5_A9_D9_MISO_10*%
%TO.N,Net-(D13-K)*%
X18375000Y-28540000D03*
D18*
%TO.P,U3,11,PA6_A10_D10_MOSI_11*%
%TO.N,Net-(U3-PA6_A10_D10_MOSI)*%
X18375000Y-26000000D03*
%TO.P,U3,12,3V3_12*%
%TO.N,unconnected-(U3-3V3-Pad12)*%
X18375000Y-23460000D03*
%TO.P,U3,13,GND_13*%
%TO.N,Net-(U3-GND)*%
X18375000Y-20920000D03*
%TO.P,U3,14,5V_14*%
%TO.N,unconnected-(U3-5V-Pad14)*%
X18375000Y-18380000D03*
%TD*%
D14*
%TO.P,D12,1,K_1*%
%TO.N,Net-(D10-K)*%
X87310000Y-95000000D03*
D15*
%TO.P,D12,2,A_2*%
%TO.N,Net-(D12-A)*%
X79690000Y-95000000D03*
%TD*%
D14*
%TO.P,D16,1,K_1*%
%TO.N,Net-(D13-K)*%
X87310000Y-113500000D03*
D15*
%TO.P,D16,2,A_2*%
%TO.N,Net-(D16-A)*%
X79690000Y-113500000D03*
%TD*%
D14*
%TO.P,D7,1,K_1*%
%TO.N,Net-(D5-K)*%
X67810000Y-75500000D03*
D15*
%TO.P,D7,2,A_2*%
%TO.N,Net-(D7-A)*%
X60190000Y-75500000D03*
%TD*%
D14*
%TO.P,D5,1,K_1*%
%TO.N,Net-(D5-K)*%
X28810000Y-75500000D03*
D15*
%TO.P,D5,2,A_2*%
%TO.N,Net-(D5-A)*%
X21190000Y-75500000D03*
%TD*%
D14*
%TO.P,D3,1,K_1*%
%TO.N,Net-(D1-K)*%
X86810000Y-56000000D03*
D15*
%TO.P,D3,2,A_2*%
%TO.N,Net-(D3-A)*%
X79190000Y-56000000D03*
%TD*%
D14*
%TO.P,D11,1,K_1*%
%TO.N,Net-(D10-K)*%
X67810000Y-95000000D03*
D15*
%TO.P,D11,2,A_2*%
%TO.N,Net-(D11-A)*%
X60190000Y-95000000D03*
%TD*%
D14*
%TO.P,D6,1,K_1*%
%TO.N,Net-(D5-K)*%
X48310000Y-75500000D03*
D15*
%TO.P,D6,2,A_2*%
%TO.N,Net-(D6-A)*%
X40690000Y-75500000D03*
%TD*%
D14*
%TO.P,D10,1,K_1*%
%TO.N,Net-(D10-K)*%
X48500000Y-95000000D03*
D15*
%TO.P,D10,2,A_2*%
%TO.N,Net-(D10-A)*%
X40880000Y-95000000D03*
%TD*%
D14*
%TO.P,D13,1,K_1*%
%TO.N,Net-(D13-K)*%
X28310000Y-113500000D03*
D15*
%TO.P,D13,2,A_2*%
%TO.N,Net-(D13-A)*%
X20690000Y-113500000D03*
%TD*%
D14*
%TO.P,D8,1,K_1*%
%TO.N,Net-(D5-K)*%
X87310000Y-76000000D03*
D15*
%TO.P,D8,2,A_2*%
%TO.N,Net-(D8-A)*%
X79690000Y-76000000D03*
%TD*%
D14*
%TO.P,D4,1,K_1*%
%TO.N,Net-(D1-K)*%
X28310000Y-56000000D03*
D15*
%TO.P,D4,2,A_2*%
%TO.N,Net-(D4-A)*%
X20690000Y-56000000D03*
%TD*%
D14*
%TO.P,D2,1,K_1*%
%TO.N,Net-(D1-K)*%
X67810000Y-56000000D03*
D15*
%TO.P,D2,2,A_2*%
%TO.N,Net-(D2-A)*%
X60190000Y-56000000D03*
%TD*%
D14*
%TO.P,D9,1,K_1*%
%TO.N,Net-(D10-K)*%
X28810000Y-95000000D03*
D15*
%TO.P,D9,2,A_2*%
%TO.N,Net-(D9-A)*%
X21190000Y-95000000D03*
%TD*%
D14*
%TO.P,D1,1,K_1*%
%TO.N,Net-(D1-K)*%
X48810000Y-56000000D03*
D15*
%TO.P,D1,2,A_2*%
%TO.N,Net-(D1-A)*%
X41190000Y-56000000D03*
%TD*%
D14*
%TO.P,D15,1,K_1*%
%TO.N,Net-(D13-K)*%
X68000000Y-113500000D03*
D15*
%TO.P,D15,2,A_2*%
%TO.N,Net-(D15-A)*%
X60380000Y-113500000D03*
%TD*%
D19*
%TO.N,Net-(U3-PA4_A1_D1)*%
X45000000Y-29500000D03*
%TO.N,Net-(U3-PA11_A3_D3)*%
X46000000Y-32500000D03*
%TO.N,Net-(U3-PA02_A0_D0)*%
X27500000Y-18000000D03*
%TO.N,Net-(D5-K)*%
X20500000Y-68500000D03*
%TD*%
%TO.N,Net-(U3-PA4_A1_D1)*%
D20*
X47041609Y-79921609D02*
X47040000Y-79920000D01*
X47040000Y-60541293D02*
X47010842Y-60512135D01*
X47020519Y-40977873D02*
X47020519Y-60502458D01*
X47020519Y-60502458D02*
X47010842Y-60512135D01*
X47041609Y-99418707D02*
X47041609Y-79921609D01*
X47040000Y-79920000D02*
X47040000Y-60541293D01*
X45000000Y-38957354D02*
X47020519Y-40977873D01*
X45000000Y-29500000D02*
X45000000Y-38957354D01*
%TO.N,Net-(D10-A)*%
X42000000Y-83770000D02*
X42000000Y-93880000D01*
X40690000Y-82460000D02*
X42000000Y-83770000D01*
X42000000Y-93880000D02*
X40880000Y-95000000D01*
%TO.N,Net-(U3-PA11_A3_D3)*%
X84904068Y-48095932D02*
X86020519Y-46979481D01*
X77542646Y-32500000D02*
X86020519Y-40977873D01*
X84904068Y-59391113D02*
X84904068Y-48095932D01*
X86041609Y-99418707D02*
X86041609Y-79921609D01*
X86004067Y-60491112D02*
X84904068Y-59391113D01*
X86040000Y-79920000D02*
X86040000Y-60527045D01*
X86041609Y-79921609D02*
X86040000Y-79920000D01*
X86040000Y-60527045D02*
X86004067Y-60491112D01*
X46000000Y-32500000D02*
X77542646Y-32500000D01*
X86020519Y-46979481D02*
X86020519Y-40977873D01*
%TO.N,Net-(D3-A)*%
X79670519Y-43517873D02*
X79670519Y-55519481D01*
X79670519Y-55519481D02*
X79190000Y-56000000D01*
%TO.N,Net-(U3-PA02_A0_D0)*%
X27520519Y-52479481D02*
X26000000Y-54000000D01*
X26000000Y-58969455D02*
X27530828Y-60500283D01*
X27530828Y-60500283D02*
X27530828Y-79910828D01*
X27540000Y-79920000D02*
X27540000Y-99420000D01*
X26000000Y-54000000D02*
X26000000Y-58969455D01*
X27500000Y-18000000D02*
X27520519Y-18020519D01*
X27520519Y-41022873D02*
X27520519Y-52479481D01*
X27530828Y-79910828D02*
X27540000Y-79920000D01*
X27520519Y-18020519D02*
X27520519Y-41022873D01*
%TO.N,Net-(D5-A)*%
X21190000Y-63049455D02*
X21180828Y-63040283D01*
X21190000Y-75500000D02*
X21190000Y-63049455D01*
%TO.N,Net-(U3-PA10_A2_D2)*%
X66540000Y-79920000D02*
X66540000Y-99417098D01*
X66520519Y-40977873D02*
X66520519Y-60502458D01*
X66540000Y-76540000D02*
X66540000Y-79920000D01*
X66520519Y-60502458D02*
X66510842Y-60512135D01*
X66510842Y-76510842D02*
X66540000Y-76540000D01*
X66540000Y-99417098D02*
X66541609Y-99418707D01*
X66510842Y-60512135D02*
X66510842Y-76510842D01*
%TO.N,Net-(D7-A)*%
X60190000Y-63081293D02*
X60160842Y-63052135D01*
X60190000Y-75500000D02*
X60190000Y-63081293D01*
%TO.N,Net-(D2-A)*%
X60190000Y-56000000D02*
X60190000Y-43537354D01*
X60190000Y-43537354D02*
X60170519Y-43517873D01*
%TO.N,Net-(D4-A)*%
X20690000Y-56000000D02*
X21170519Y-55519481D01*
X21170519Y-55519481D02*
X21170519Y-43562873D01*
%TO.N,Net-(U3-PA6_A10_D10_MOSI)*%
X26000000Y-19375000D02*
X19375000Y-26000000D01*
X71750000Y-16500000D02*
X26000000Y-16500000D01*
X76750000Y-21500000D02*
X71750000Y-16500000D01*
X26000000Y-16500000D02*
X26000000Y-19375000D01*
%TO.N,Net-(U3-PA9_A5_D5_SCL)*%
X34625000Y-31080000D02*
X29500000Y-25955000D01*
X29500000Y-25955000D02*
X29500000Y-17000000D01*
X33575000Y-17000000D02*
X67250000Y-17000000D01*
X67250000Y-17000000D02*
X76750000Y-26500000D01*
X29500000Y-17000000D02*
X34000000Y-17000000D01*
%TO.N,Net-(U3-GND)*%
X24295000Y-16000000D02*
X91000000Y-16000000D01*
X91000000Y-16000000D02*
X91250000Y-16250000D01*
X91250000Y-16250000D02*
X91250000Y-21500000D01*
X79250000Y-21500000D02*
X76750000Y-24000000D01*
X19375000Y-20920000D02*
X24295000Y-16000000D01*
X91250000Y-21500000D02*
X79250000Y-21500000D01*
%TO.N,Net-(U3-PA8_A4_D4_SDA)*%
X82110000Y-28540000D02*
X34625000Y-28540000D01*
X84150000Y-26500000D02*
X82110000Y-28540000D01*
X91250000Y-26500000D02*
X84150000Y-26500000D01*
%TO.N,Net-(D11-A)*%
X61500000Y-83770000D02*
X60190000Y-82460000D01*
X61500000Y-93690000D02*
X61500000Y-83770000D01*
X60190000Y-95000000D02*
X61500000Y-93690000D01*
%TO.N,Net-(D1-A)*%
X40670519Y-55480519D02*
X41190000Y-56000000D01*
X40670519Y-43517873D02*
X40670519Y-55480519D01*
%TO.N,Net-(D8-A)*%
X79654067Y-63031112D02*
X79654067Y-75964067D01*
X79654067Y-75964067D02*
X79690000Y-76000000D01*
%TO.N,Net-(D9-A)*%
X21190000Y-95000000D02*
X21190000Y-82460000D01*
%TO.N,Net-(D13-A)*%
X21190000Y-113000000D02*
X21190000Y-101960000D01*
X20690000Y-113500000D02*
X21190000Y-113000000D01*
%TO.N,Net-(D6-A)*%
X40660842Y-63052135D02*
X40660842Y-75470842D01*
X40660842Y-75470842D02*
X40690000Y-75500000D01*
%TO.N,Net-(D12-A)*%
X79690000Y-82460000D02*
X79690000Y-95000000D01*
%TO.N,Net-(D16-A)*%
X79691609Y-101958707D02*
X79691609Y-113498391D01*
X79691609Y-113498391D02*
X79690000Y-113500000D01*
%TO.N,Net-(D14-A)*%
X40691609Y-101958707D02*
X40691609Y-113498391D01*
X40691609Y-113498391D02*
X40690000Y-113500000D01*
%TO.N,Net-(D15-A)*%
X60380000Y-113500000D02*
X60380000Y-102147098D01*
X60380000Y-102147098D02*
X60191609Y-101958707D01*
%TO.N,Net-(D5-K)*%
X18700519Y-66700519D02*
X20500000Y-68500000D01*
X19375000Y-33620000D02*
X18700519Y-34294481D01*
X18700519Y-34294481D02*
X18700519Y-66700519D01*
%TD*%
M02*
