%TF.GenerationSoftware,KiCad,Pcbnew,10.0.5*%
%TF.CreationDate,2026-08-20T23:03:31+05:30*%
%TF.ProjectId,freaky 2,66726561-6b79-4203-922e-6b696361645f,rev?*%
%TF.SameCoordinates,Original*%
%TF.FileFunction,Soldermask,Bot*%
%TF.FilePolarity,Negative*%
%FSLAX46Y46*%
G04 Gerber Fmt 4.6, Leading zero omitted, Abs format (unit mm)*
G04 Created by KiCad (PCBNEW 10.0.5) date 2026-08-20 23:03:31*
%MOMM*%
%LPD*%
G01*
G04 APERTURE LIST*
G04 Aperture macros list*
%AMRoundRect*
0 Rectangle with rounded corners*
0 $1 Rounding radius*
0 $2 $3 $4 $5 $6 $7 $8 $9 X,Y pos of 4 corners*
0 Add a 4 corners polygon primitive as box body*
4,1,4,$2,$3,$4,$5,$6,$7,$8,$9,$2,$3,0*
0 Add four circle primitives for the rounded corners*
1,1,$1+$1,$2,$3*
1,1,$1+$1,$4,$5*
1,1,$1+$1,$6,$7*
1,1,$1+$1,$8,$9*
0 Add four rect primitives between the rounded corners*
20,1,$1+$1,$2,$3,$4,$5,0*
20,1,$1+$1,$4,$5,$6,$7,0*
20,1,$1+$1,$6,$7,$8,$9,0*
20,1,$1+$1,$8,$9,$2,$3,0*%
G04 Aperture macros list end*
%ADD10C,1.700000*%
%ADD11C,4.000000*%
%ADD12C,2.200000*%
%ADD13R,2.000000X2.000000*%
%ADD14C,2.000000*%
%ADD15R,3.200000X2.000000*%
%ADD16RoundRect,0.250000X0.550000X0.550000X-0.550000X0.550000X-0.550000X-0.550000X0.550000X-0.550000X0*%
%ADD17C,1.600000*%
%ADD18R,3.500000X1.700000*%
%ADD19O,3.600000X1.700000*%
%ADD20O,3.700000X1.700000*%
G04 APERTURE END LIST*
D10*
%TO.C,SW10*%
X39420000Y-85000000D03*
D11*
X44500000Y-85000000D03*
D10*
X49580000Y-85000000D03*
D12*
X47040000Y-79920000D03*
X40690000Y-82460000D03*
%TD*%
D10*
%TO.C,SW4*%
X78400519Y-46057873D03*
D11*
X83480519Y-46057873D03*
D10*
X88560519Y-46057873D03*
D12*
X86020519Y-40977873D03*
X79670519Y-43517873D03*
%TD*%
D10*
%TO.C,SW5*%
X19910828Y-65580283D03*
D11*
X24990828Y-65580283D03*
D10*
X30070828Y-65580283D03*
D12*
X27530828Y-60500283D03*
X21180828Y-63040283D03*
%TD*%
D10*
%TO.C,SW7*%
X58890842Y-65592135D03*
D11*
X63970842Y-65592135D03*
D10*
X69050842Y-65592135D03*
D12*
X66510842Y-60512135D03*
X60160842Y-63052135D03*
%TD*%
D10*
%TO.C,SW3*%
X58900519Y-46057873D03*
D11*
X63980519Y-46057873D03*
D10*
X69060519Y-46057873D03*
D12*
X66520519Y-40977873D03*
X60170519Y-43517873D03*
%TD*%
D10*
%TO.C,SW1*%
X19900519Y-46102873D03*
D11*
X24980519Y-46102873D03*
D10*
X30060519Y-46102873D03*
D12*
X27520519Y-41022873D03*
X21170519Y-43562873D03*
%TD*%
D13*
%TO.C,SW17*%
X76750000Y-21500000D03*
D14*
X76750000Y-26500000D03*
X76750000Y-24000000D03*
D15*
X84250000Y-18400000D03*
X84250000Y-29600000D03*
D14*
X91250000Y-26500000D03*
X91250000Y-21500000D03*
%TD*%
D12*
%TO.C,REF\u002A\u002A*%
X67000000Y-24500000D03*
%TD*%
D10*
%TO.C,SW11*%
X58920000Y-85000000D03*
D11*
X64000000Y-85000000D03*
D10*
X69080000Y-85000000D03*
D12*
X66540000Y-79920000D03*
X60190000Y-82460000D03*
%TD*%
D10*
%TO.C,SW2*%
X39400519Y-46057873D03*
D11*
X44480519Y-46057873D03*
D10*
X49560519Y-46057873D03*
D12*
X47020519Y-40977873D03*
X40670519Y-43517873D03*
%TD*%
D10*
%TO.C,SW8*%
X78384067Y-65571112D03*
D11*
X83464067Y-65571112D03*
D10*
X88544067Y-65571112D03*
D12*
X86004067Y-60491112D03*
X79654067Y-63031112D03*
%TD*%
D10*
%TO.C,SW9*%
X19920000Y-85000000D03*
D11*
X25000000Y-85000000D03*
D10*
X30080000Y-85000000D03*
D12*
X27540000Y-79920000D03*
X21190000Y-82460000D03*
%TD*%
D10*
%TO.C,SW13*%
X19920000Y-104500000D03*
D11*
X25000000Y-104500000D03*
D10*
X30080000Y-104500000D03*
D12*
X27540000Y-99420000D03*
X21190000Y-101960000D03*
%TD*%
D10*
%TO.C,SW6*%
X39390842Y-65592135D03*
D11*
X44470842Y-65592135D03*
D10*
X49550842Y-65592135D03*
D12*
X47010842Y-60512135D03*
X40660842Y-63052135D03*
%TD*%
D10*
%TO.C,SW12*%
X78420000Y-85000000D03*
D11*
X83500000Y-85000000D03*
D10*
X88580000Y-85000000D03*
D12*
X86040000Y-79920000D03*
X79690000Y-82460000D03*
%TD*%
D10*
%TO.C,SW16*%
X78421609Y-104498707D03*
D11*
X83501609Y-104498707D03*
D10*
X88581609Y-104498707D03*
D12*
X86041609Y-99418707D03*
X79691609Y-101958707D03*
%TD*%
D10*
%TO.C,SW14*%
X39421609Y-104498707D03*
D11*
X44501609Y-104498707D03*
D10*
X49581609Y-104498707D03*
D12*
X47041609Y-99418707D03*
X40691609Y-101958707D03*
%TD*%
D10*
%TO.C,SW15*%
X58921609Y-104498707D03*
D11*
X64001609Y-104498707D03*
D10*
X69081609Y-104498707D03*
D12*
X66541609Y-99418707D03*
X60191609Y-101958707D03*
%TD*%
D16*
%TO.C,D14*%
X48310000Y-113500000D03*
D17*
X40690000Y-113500000D03*
%TD*%
D18*
%TO.C,U3*%
X35625000Y-18380000D03*
D19*
X35625000Y-20920000D03*
X35625000Y-23460000D03*
X35625000Y-26000000D03*
X35625000Y-28540000D03*
X35625000Y-31080000D03*
X35625000Y-33620000D03*
X18375000Y-33620000D03*
X18375000Y-31080000D03*
X18375000Y-28540000D03*
D20*
X18375000Y-26000000D03*
X18375000Y-23460000D03*
X18375000Y-20920000D03*
X18375000Y-18380000D03*
%TD*%
D16*
%TO.C,D12*%
X87310000Y-95000000D03*
D17*
X79690000Y-95000000D03*
%TD*%
D16*
%TO.C,D16*%
X87310000Y-113500000D03*
D17*
X79690000Y-113500000D03*
%TD*%
D16*
%TO.C,D7*%
X67810000Y-75500000D03*
D17*
X60190000Y-75500000D03*
%TD*%
D16*
%TO.C,D5*%
X28810000Y-75500000D03*
D17*
X21190000Y-75500000D03*
%TD*%
D16*
%TO.C,D3*%
X86810000Y-56000000D03*
D17*
X79190000Y-56000000D03*
%TD*%
D16*
%TO.C,D11*%
X67810000Y-95000000D03*
D17*
X60190000Y-95000000D03*
%TD*%
D16*
%TO.C,D6*%
X48310000Y-75500000D03*
D17*
X40690000Y-75500000D03*
%TD*%
D16*
%TO.C,D10*%
X48500000Y-95000000D03*
D17*
X40880000Y-95000000D03*
%TD*%
D16*
%TO.C,D13*%
X28310000Y-113500000D03*
D17*
X20690000Y-113500000D03*
%TD*%
D16*
%TO.C,D8*%
X87310000Y-76000000D03*
D17*
X79690000Y-76000000D03*
%TD*%
D16*
%TO.C,D4*%
X28310000Y-56000000D03*
D17*
X20690000Y-56000000D03*
%TD*%
D16*
%TO.C,D2*%
X67810000Y-56000000D03*
D17*
X60190000Y-56000000D03*
%TD*%
D16*
%TO.C,D9*%
X28810000Y-95000000D03*
D17*
X21190000Y-95000000D03*
%TD*%
D16*
%TO.C,D1*%
X48810000Y-56000000D03*
D17*
X41190000Y-56000000D03*
%TD*%
D16*
%TO.C,D15*%
X68000000Y-113500000D03*
D17*
X60380000Y-113500000D03*
%TD*%
M02*
